mtllib chair.mtl
o student_chair
usemtl main
v -0.220000 0.400000 -0.220000
v 0.220000 0.400000 -0.220000
v 0.220000 0.470000 -0.220000
v -0.220000 0.470000 -0.220000
v 0.220000 0.400000 0.220000
v -0.220000 0.400000 0.220000
v -0.220000 0.470000 0.220000
v 0.220000 0.470000 0.220000
v -0.220000 0.400000 0.220000
v -0.220000 0.400000 -0.220000
v -0.220000 0.470000 -0.220000
v -0.220000 0.470000 0.220000
v 0.220000 0.400000 -0.220000
v 0.220000 0.400000 0.220000
v 0.220000 0.470000 0.220000
v 0.220000 0.470000 -0.220000
v -0.220000 0.470000 -0.220000
v 0.220000 0.470000 -0.220000
v 0.220000 0.470000 0.220000
v -0.220000 0.470000 0.220000
v -0.220000 0.400000 0.220000
v 0.220000 0.400000 0.220000
v 0.220000 0.400000 -0.220000
v -0.220000 0.400000 -0.220000
v -0.220000 0.470000 0.155000
v 0.220000 0.470000 0.155000
v 0.220000 0.890000 0.155000
v -0.220000 0.890000 0.155000
v 0.220000 0.470000 0.225000
v -0.220000 0.470000 0.225000
v -0.220000 0.890000 0.225000
v 0.220000 0.890000 0.225000
v -0.220000 0.470000 0.225000
v -0.220000 0.470000 0.155000
v -0.220000 0.890000 0.155000
v -0.220000 0.890000 0.225000
v 0.220000 0.470000 0.155000
v 0.220000 0.470000 0.225000
v 0.220000 0.890000 0.225000
v 0.220000 0.890000 0.155000
v -0.220000 0.890000 0.155000
v 0.220000 0.890000 0.155000
v 0.220000 0.890000 0.225000
v -0.220000 0.890000 0.225000
v -0.220000 0.470000 0.225000
v 0.220000 0.470000 0.225000
v 0.220000 0.470000 0.155000
v -0.220000 0.470000 0.155000
v -0.195000 0.000000 -0.195000
v -0.145000 0.000000 -0.195000
v -0.145000 0.400000 -0.195000
v -0.195000 0.400000 -0.195000
v -0.145000 0.000000 -0.145000
v -0.195000 0.000000 -0.145000
v -0.195000 0.400000 -0.145000
v -0.145000 0.400000 -0.145000
v -0.195000 0.000000 -0.145000
v -0.195000 0.000000 -0.195000
v -0.195000 0.400000 -0.195000
v -0.195000 0.400000 -0.145000
v -0.145000 0.000000 -0.195000
v -0.145000 0.000000 -0.145000
v -0.145000 0.400000 -0.145000
v -0.145000 0.400000 -0.195000
v -0.195000 0.400000 -0.195000
v -0.145000 0.400000 -0.195000
v -0.145000 0.400000 -0.145000
v -0.195000 0.400000 -0.145000
v -0.195000 0.000000 -0.145000
v -0.145000 0.000000 -0.145000
v -0.145000 0.000000 -0.195000
v -0.195000 0.000000 -0.195000
v 0.145000 0.000000 -0.195000
v 0.195000 0.000000 -0.195000
v 0.195000 0.400000 -0.195000
v 0.145000 0.400000 -0.195000
v 0.195000 0.000000 -0.145000
v 0.145000 0.000000 -0.145000
v 0.145000 0.400000 -0.145000
v 0.195000 0.400000 -0.145000
v 0.145000 0.000000 -0.145000
v 0.145000 0.000000 -0.195000
v 0.145000 0.400000 -0.195000
v 0.145000 0.400000 -0.145000
v 0.195000 0.000000 -0.195000
v 0.195000 0.000000 -0.145000
v 0.195000 0.400000 -0.145000
v 0.195000 0.400000 -0.195000
v 0.145000 0.400000 -0.195000
v 0.195000 0.400000 -0.195000
v 0.195000 0.400000 -0.145000
v 0.145000 0.400000 -0.145000
v 0.145000 0.000000 -0.145000
v 0.195000 0.000000 -0.145000
v 0.195000 0.000000 -0.195000
v 0.145000 0.000000 -0.195000
v -0.195000 0.000000 0.145000
v -0.145000 0.000000 0.145000
v -0.145000 0.400000 0.145000
v -0.195000 0.400000 0.145000
v -0.145000 0.000000 0.195000
v -0.195000 0.000000 0.195000
v -0.195000 0.400000 0.195000
v -0.145000 0.400000 0.195000
v -0.195000 0.000000 0.195000
v -0.195000 0.000000 0.145000
v -0.195000 0.400000 0.145000
v -0.195000 0.400000 0.195000
v -0.145000 0.000000 0.145000
v -0.145000 0.000000 0.195000
v -0.145000 0.400000 0.195000
v -0.145000 0.400000 0.145000
v -0.195000 0.400000 0.145000
v -0.145000 0.400000 0.145000
v -0.145000 0.400000 0.195000
v -0.195000 0.400000 0.195000
v -0.195000 0.000000 0.195000
v -0.145000 0.000000 0.195000
v -0.145000 0.000000 0.145000
v -0.195000 0.000000 0.145000
v 0.145000 0.000000 0.145000
v 0.195000 0.000000 0.145000
v 0.195000 0.400000 0.145000
v 0.145000 0.400000 0.145000
v 0.195000 0.000000 0.195000
v 0.145000 0.000000 0.195000
v 0.145000 0.400000 0.195000
v 0.195000 0.400000 0.195000
v 0.145000 0.000000 0.195000
v 0.145000 0.000000 0.145000
v 0.145000 0.400000 0.145000
v 0.145000 0.400000 0.195000
v 0.195000 0.000000 0.145000
v 0.195000 0.000000 0.195000
v 0.195000 0.400000 0.195000
v 0.195000 0.400000 0.145000
v 0.145000 0.400000 0.145000
v 0.195000 0.400000 0.145000
v 0.195000 0.400000 0.195000
v 0.145000 0.400000 0.195000
v 0.145000 0.000000 0.195000
v 0.195000 0.000000 0.195000
v 0.195000 0.000000 0.145000
v 0.145000 0.000000 0.145000
vt 0.000000 0.000000
vt 1.000000 0.000000
vt 1.000000 1.000000
vt 0.000000 1.000000
vt 0.000000 0.000000
vt 1.000000 0.000000
vt 1.000000 1.000000
vt 0.000000 1.000000
vt 0.000000 0.000000
vt 1.000000 0.000000
vt 1.000000 1.000000
vt 0.000000 1.000000
vt 0.000000 0.000000
vt 1.000000 0.000000
vt 1.000000 1.000000
vt 0.000000 1.000000
vt 0.000000 0.000000
vt 1.000000 0.000000
vt 1.000000 1.000000
vt 0.000000 1.000000
vt 0.000000 0.000000
vt 1.000000 0.000000
vt 1.000000 1.000000
vt 0.000000 1.000000
vt 0.000000 0.000000
vt 1.000000 0.000000
vt 1.000000 1.000000
vt 0.000000 1.000000
vt 0.000000 0.000000
vt 1.000000 0.000000
vt 1.000000 1.000000
vt 0.000000 1.000000
vt 0.000000 0.000000
vt 1.000000 0.000000
vt 1.000000 1.000000
vt 0.000000 1.000000
vt 0.000000 0.000000
vt 1.000000 0.000000
vt 1.000000 1.000000
vt 0.000000 1.000000
vt 0.000000 0.000000
vt 1.000000 0.000000
vt 1.000000 1.000000
vt 0.000000 1.000000
vt 0.000000 0.000000
vt 1.000000 0.000000
vt 1.000000 1.000000
vt 0.000000 1.000000
vt 0.000000 0.000000
vt 1.000000 0.000000
vt 1.000000 1.000000
vt 0.000000 1.000000
vt 0.000000 0.000000
vt 1.000000 0.000000
vt 1.000000 1.000000
vt 0.000000 1.000000
vt 0.000000 0.000000
vt 1.000000 0.000000
vt 1.000000 1.000000
vt 0.000000 1.000000
vt 0.000000 0.000000
vt 1.000000 0.000000
vt 1.000000 1.000000
vt 0.000000 1.000000
vt 0.000000 0.000000
vt 1.000000 0.000000
vt 1.000000 1.000000
vt 0.000000 1.000000
vt 0.000000 0.000000
vt 1.000000 0.000000
vt 1.000000 1.000000
vt 0.000000 1.000000
vt 0.000000 0.000000
vt 1.000000 0.000000
vt 1.000000 1.000000
vt 0.000000 1.000000
vt 0.000000 0.000000
vt 1.000000 0.000000
vt 1.000000 1.000000
vt 0.000000 1.000000
vt 0.000000 0.000000
vt 1.000000 0.000000
vt 1.000000 1.000000
vt 0.000000 1.000000
vt 0.000000 0.000000
vt 1.000000 0.000000
vt 1.000000 1.000000
vt 0.000000 1.000000
vt 0.000000 0.000000
vt 1.000000 0.000000
vt 1.000000 1.000000
vt 0.000000 1.000000
vt 0.000000 0.000000
vt 1.000000 0.000000
vt 1.000000 1.000000
vt 0.000000 1.000000
vt 0.000000 0.000000
vt 1.000000 0.000000
vt 1.000000 1.000000
vt 0.000000 1.000000
vt 0.000000 0.000000
vt 1.000000 0.000000
vt 1.000000 1.000000
vt 0.000000 1.000000
vt 0.000000 0.000000
vt 1.000000 0.000000
vt 1.000000 1.000000
vt 0.000000 1.000000
vt 0.000000 0.000000
vt 1.000000 0.000000
vt 1.000000 1.000000
vt 0.000000 1.000000
vt 0.000000 0.000000
vt 1.000000 0.000000
vt 1.000000 1.000000
vt 0.000000 1.000000
vt 0.000000 0.000000
vt 1.000000 0.000000
vt 1.000000 1.000000
vt 0.000000 1.000000
vt 0.000000 0.000000
vt 1.000000 0.000000
vt 1.000000 1.000000
vt 0.000000 1.000000
vt 0.000000 0.000000
vt 1.000000 0.000000
vt 1.000000 1.000000
vt 0.000000 1.000000
vt 0.000000 0.000000
vt 1.000000 0.000000
vt 1.000000 1.000000
vt 0.000000 1.000000
vt 0.000000 0.000000
vt 1.000000 0.000000
vt 1.000000 1.000000
vt 0.000000 1.000000
vt 0.000000 0.000000
vt 1.000000 0.000000
vt 1.000000 1.000000
vt 0.000000 1.000000
vt 0.000000 0.000000
vt 1.000000 0.000000
vt 1.000000 1.000000
vt 0.000000 1.000000
f 4/4 3/3 2/2 1/1
f 8/8 7/7 6/6 5/5
f 12/12 11/11 10/10 9/9
f 16/16 15/15 14/14 13/13
f 20/20 19/19 18/18 17/17
f 24/24 23/23 22/22 21/21
f 28/28 27/27 26/26 25/25
f 32/32 31/31 30/30 29/29
f 36/36 35/35 34/34 33/33
f 40/40 39/39 38/38 37/37
f 44/44 43/43 42/42 41/41
f 48/48 47/47 46/46 45/45
f 52/52 51/51 50/50 49/49
f 56/56 55/55 54/54 53/53
f 60/60 59/59 58/58 57/57
f 64/64 63/63 62/62 61/61
f 68/68 67/67 66/66 65/65
f 72/72 71/71 70/70 69/69
f 76/76 75/75 74/74 73/73
f 80/80 79/79 78/78 77/77
f 84/84 83/83 82/82 81/81
f 88/88 87/87 86/86 85/85
f 92/92 91/91 90/90 89/89
f 96/96 95/95 94/94 93/93
f 100/100 99/99 98/98 97/97
f 104/104 103/103 102/102 101/101
f 108/108 107/107 106/106 105/105
f 112/112 111/111 110/110 109/109
f 116/116 115/115 114/114 113/113
f 120/120 119/119 118/118 117/117
f 124/124 123/123 122/122 121/121
f 128/128 127/127 126/126 125/125
f 132/132 131/131 130/130 129/129
f 136/136 135/135 134/134 133/133
f 140/140 139/139 138/138 137/137
f 144/144 143/143 142/142 141/141
